<svg xmlns="http://www.w3.org/2000/svg" width="133" height="34" fill="none"><path fill="#02bedf" d="M9.266 5.508c-2.328 0-4.645.847-6.418 2.55A9.19 9.19 0 0 0 0 14.653a9.2 9.2 0 0 0 2.729 6.643l9.12 9.078c4.674 4.653 12.279 4.653 16.953 0l1.364-1.358a4.16 4.16 0 0 0 1.234-2.967 4.2 4.2 0 0 0-.477-1.94 4.3 4.3 0 0 0-.478-.717 5 5 0 0 0-.279-.31 4 4 0 0 0-.77-.6 2 2 0 0 0-.146-.085 4.17 4.17 0 0 0-2.064-.54 4.2 4.2 0 0 0-2.981 1.228 5.95 5.95 0 0 1-2.975 1.523 6 6 0 0 1-1.136.107c-1.598 0-3.099-.62-4.229-1.745l-.015-.018-.018-.015c-.03-.03-.056-.062-.086-.091a3 3 0 0 1-.121-.127l-.054-.062q-.074-.084-.145-.168-.009-.014-.018-.021a5.9 5.9 0 0 1-1.326-3.737c0-1.173.342-2.291.973-3.25q.01-.015.015-.027.062-.092.128-.18l.047-.068.107-.14q.039-.05.077-.1.046-.052.092-.109c.036-.038.068-.08.104-.118l.124-.13q.04-.041.08-.082h.003l3.224-3.215-3.034-3.02A9.58 9.58 0 0 0 9.26 5.505"/><path fill="#0048db" d="M43.413 15.832a9.2 9.2 0 0 0 2.728-6.56c0-2.477-.97-4.806-2.728-6.56-3.634-3.616-9.548-3.616-13.18 0l-8.64 8.603-2.575 2.562-1.916 1.907q-.064.069-.124.136c-.054.06-.11.115-.158.174q-.061.08-.118.16c-.045.059-.09.115-.13.177l-.075.124q-.072.114-.136.233l-.036.074q-.076.148-.14.301 0 .008-.005.015a4.16 4.16 0 0 0 .376 3.832l.01.017q.099.146.207.28.021.03.041.057.125.156.273.298.009.008.012.015l.03.03a4.17 4.17 0 0 0 2.969 1.225q.211 0 .415-.021c.033-.003.065-.012.098-.015a5 5 0 0 0 .308-.044q.084-.019.166-.041.116-.026.229-.056c.062-.018.124-.045.187-.068q.098-.034.195-.071c.062-.027.122-.06.184-.086.062-.03.125-.056.184-.089.062-.032.122-.073.184-.109q.085-.048.166-.1c.06-.038.116-.086.175-.127q.08-.055.157-.115c.054-.044.101-.092.151-.136.054-.047.11-.092.16-.145a5.98 5.98 0 0 1 4.126-1.632c1.038 0 2.053.265 2.936.767a5.8 5.8 0 0 1 1.741 1.47 6 6 0 0 1 .801 1.297c.012.026.021.056.036.082.035.08.071.163.1.245l.045.13q.038.101.071.207.021.072.042.145.028.096.056.197.017.077.033.154a5 5 0 0 1 .068.357q.014.096.03.192l.017.168.018.19q.005.084.006.173c0 .053.006.11.006.163l10.226-10.176z"/><path fill="#313131" d="M55.102 27.845c0-3.575 2.541-6.176 6.272-6.176 1.4 0 2.702.369 3.613.95l-.25 1.96c-.791-.51-1.986-.867-3.22-.867-2.403 0-4.081 1.694-4.081 4.133s1.61 4.11 4.152 4.11c1.213 0 2.334-.343 3.126-.854l.255 1.993c-.91.558-2.144.906-3.544.906-3.803 0-6.32-2.6-6.32-6.152zm22.996.788h-9.236c.35 2.507 2.331 3.552 4.547 3.552 1.515 0 2.704-.278 4.033-.975h.21v1.671c-1.375.812-2.799 1.113-4.546 1.113-3.847 0-6.368-2.415-6.368-6.176 0-3.76 2.682-6.152 5.947-6.152s5.644 2.067 5.644 5.293c0 .487-.071 1.184-.234 1.671zm-1.726-1.996c-.093-1.833-1.33-3.274-3.663-3.274-1.818 0-3.52 1.137-3.847 3.6h7.51zm3.581-4.859h1.706l.275 2.073h.163c.653-1.184 2.03-2.158 3.755-2.182h.35l-.273 2.134h-.1c-2.005 0-3.684 1.462-3.684 4.063v5.756h-2.192V21.775zM94.41 33.602a6.1 6.1 0 0 1-2.215.396c-2.916 0-4.34-1.695-4.34-4.992v-5.734l.647-4.992h1.57v3.738h3.825v1.904h-3.826l.024 5.107c0 1.928.7 2.926 2.473 2.926.7 0 1.19-.163 1.584-.348zm.878-5.804c0-3.552 2.824-6.13 6.273-6.13s6.273 2.578 6.273 6.13-2.776 6.2-6.297 6.2-6.252-2.602-6.252-6.2zm10.31 0c0-2.392-1.774-4.086-4.034-4.086s-4.034 1.694-4.034 4.086 1.774 4.156 4.013 4.156 4.058-1.718 4.058-4.156zM61.315 16.53a6.5 6.5 0 0 1-2.577-.481 5.9 5.9 0 0 1-1.957-1.332 5.8 5.8 0 0 1-1.243-1.948 6.6 6.6 0 0 1-.436-2.406 7.2 7.2 0 0 1 .436-2.515 6.2 6.2 0 0 1 1.251-2.061 5.8 5.8 0 0 1 1.964-1.385 6.3 6.3 0 0 1 2.586-.505 5.7 5.7 0 0 1 2.417.482 4.6 4.6 0 0 1 1.827 1.367l.208-1.506h2.331v11.924h-2.328l-.235-1.53a4.6 4.6 0 0 1-1.826 1.391 5.7 5.7 0 0 1-2.418.51m.424-3.108c.442 0 .881-.085 1.288-.26a3.25 3.25 0 0 0 1.038-.693 3.12 3.12 0 0 0 .913-2.253c0-.437-.086-.868-.255-1.27a3.3 3.3 0 0 0-.7-1.02 3.1 3.1 0 0 0-1.038-.683 3.4 3.4 0 0 0-1.287-.245 3.3 3.3 0 0 0-1.252.236 3.2 3.2 0 0 0-1.029.659 3 3 0 0 0-.682 1.01 3.3 3.3 0 0 0-.252 1.313c-.003.443.08.883.252 1.293.157.384.394.726.697 1.01a3.1 3.1 0 0 0 1.038.658c.403.162.836.245 1.272.24zm26.329 3.13a6.9 6.9 0 0 1-2.602-.482 6.7 6.7 0 0 1-2.102-1.328 6.19 6.19 0 0 1-1.91-4.544 5.9 5.9 0 0 1 .527-2.491 6.4 6.4 0 0 1 1.45-1.996 6.7 6.7 0 0 1 2.104-1.329 7.15 7.15 0 0 1 5.154 0 6.6 6.6 0 0 1 2.097 1.329 6.2 6.2 0 0 1 1.42 1.996 6.1 6.1 0 0 1 .517 2.491 6.2 6.2 0 0 1-.516 2.53 6.3 6.3 0 0 1-1.42 2.01 6.6 6.6 0 0 1-2.098 1.33 7 7 0 0 1-2.619.48m-.002-3.197c.424 0 .848-.077 1.242-.23a3.1 3.1 0 0 0 1-.658 3.13 3.13 0 0 0 .922-2.262 3.3 3.3 0 0 0-.237-1.246 3.1 3.1 0 0 0-.662-.986 3.1 3.1 0 0 0-1.005-.634 3.3 3.3 0 0 0-1.237-.23c-.424 0-.848.076-1.242.23a3 3 0 0 0-1 .658 3.2 3.2 0 0 0-.676.986 3.1 3.1 0 0 0-.246 1.246 3.111 3.111 0 0 0 .922 2.261c.285.28.62.505.99.659a3.2 3.2 0 0 0 1.229.206m23.001 3.173a6.5 6.5 0 0 1-2.577-.48 5.78 5.78 0 0 1-3.2-3.284 6.5 6.5 0 0 1-.436-2.406 7.2 7.2 0 0 1 .436-2.515 6.2 6.2 0 0 1 1.251-2.06 5.8 5.8 0 0 1 1.964-1.385 6.3 6.3 0 0 1 2.586-.505 4.3 4.3 0 0 1 2.04.434c.522.272.982.64 1.359 1.092l.694-5.225h2.969V16.17h-2.649l-.202-1.529a4.6 4.6 0 0 1-1.835 1.39 5.7 5.7 0 0 1-2.397.502m.421-3.105c.442 0 .881-.086 1.288-.26a3.3 3.3 0 0 0 1.038-.694c.293-.29.525-.632.685-1.01a3.23 3.23 0 0 0 0-2.506 3.2 3.2 0 0 0-.697-1.021 3.1 3.1 0 0 0-1.038-.682 3.4 3.4 0 0 0-1.288-.245 3.3 3.3 0 0 0-1.251.236 3 3 0 0 0-1.029.658 3 3 0 0 0-.682 1.01 3.3 3.3 0 0 0-.253 1.314c-.006.442.081.885.253 1.293.157.383.394.726.697 1.01a3.1 3.1 0 0 0 1.038.658c.397.16.821.239 1.248.236h-.009zm14.833 3.13a6.9 6.9 0 0 1-2.595-.482 6.5 6.5 0 0 1-2.103-1.328 6.1 6.1 0 0 1-1.406-2.01 6.2 6.2 0 0 1-.507-2.53 5.8 5.8 0 0 1 .531-2.493 6.4 6.4 0 0 1 1.45-1.995 6.7 6.7 0 0 1 2.103-1.329 7.15 7.15 0 0 1 5.155 0 6.7 6.7 0 0 1 2.103 1.329 6.3 6.3 0 0 1 1.417 1.996c.35.785.528 1.635.523 2.491a6.1 6.1 0 0 1-.523 2.53 6.3 6.3 0 0 1-1.417 2.01 6.7 6.7 0 0 1-2.103 1.33 6.9 6.9 0 0 1-2.625.48m-.003-3.2a3.4 3.4 0 0 0 1.243-.23 3.2 3.2 0 0 0 1.005-.658 3.29 3.29 0 0 0 .683-3.508 3 3 0 0 0-.662-.986 3.1 3.1 0 0 0-.999-.658 3.3 3.3 0 0 0-1.243-.23 3.3 3.3 0 0 0-1.237.23c-.377.15-.718.375-1.005.658a3.2 3.2 0 0 0-.674.986 3 3 0 0 0-.252 1.246 3.11 3.11 0 0 0 1.934 2.92 3.2 3.2 0 0 0 1.21.23M96.365 4.254h2.743l.258 1.925a3.64 3.64 0 0 1 1.628-1.762 4.5 4.5 0 0 1 2.011-.36h.857l-.397 2.993a8.4 8.4 0 0 0-1.679.375c-.38.115-.729.31-1.029.567a2.9 2.9 0 0 0-.721.995 3.7 3.7 0 0 0-.27 1.505v5.692h-3.422l.02-11.933zM69.76 10.227c0-3.694 2.622-6.327 6.617-6.327 1.489 0 2.764.33 3.663.847l-.392 3.032c-.756-.446-1.735-.702-2.963-.702-1.96 0-3.31 1.245-3.31 3.153s1.3 3.176 3.33 3.176c1.229 0 2.193-.301 2.949-.75l.382 3.056c-.898.493-2.15.847-3.639.847-4.04 0-6.64-2.657-6.64-6.326z"/></svg>