<svg version="1.1" id="Camada_1" xmlns="http://www.w3.org/2000/svg" x="0" y="0" viewBox="0 0 1000 256.8" style="enable-background:new 0 0 1000 256.8" xml:space="preserve"><style>.st0{fill:#fff}</style><path class="st0" d="M0 0h78.7c28.9-.4 60.7 7.1 60.7 42.2-.1 7.1-2.3 14.1-6.2 20.1-3.9 6-9.4 10.8-15.9 13.8 8.6 2.4 16.1 7.7 21.3 14.9 5.2 7.2 7.9 16 7.5 24.9 0 40.1-29.4 52.3-65.4 52.3H0V0zm43.7 66.2h33.9c2.2.2 4.5-.1 6.6-.8s4.1-1.9 5.8-3.4c1.7-1.5 3-3.3 3.9-5.4.9-2.1 1.4-4.3 1.4-6.5.1-2.3-.3-4.6-1.2-6.7-.9-2.1-2.2-4-3.9-5.6-1.7-1.6-3.7-2.7-5.9-3.4-2.2-.7-4.5-.9-6.8-.6H43.7v32.4zm0 66.9h35.2c13.9 0 23.6-4.9 23.6-18.9 0-13.9-10.3-19.7-23.6-19.7H43.7v38.6zM223.8 42.5c8.6-.3 17.1 1.2 25 4.4 8 3.2 15.2 7.9 21.2 14s10.8 13.3 13.9 21.3c3.1 8 4.6 16.5 4.3 25.1.1 8.5-1.5 17-4.7 24.9-3.2 7.9-7.9 15.1-13.9 21.2s-13.1 10.9-21 14.2c-7.9 3.3-16.3 5-24.9 5-8.5 0-17-1.7-24.9-5-7.9-3.3-15-8.1-21-14.2s-10.7-13.3-13.9-21.2c-3.2-7.9-4.8-16.4-4.7-24.9-.3-8.5 1.1-17.1 4.3-25 3.1-8 7.8-15.2 13.9-21.3 6-6.1 13.2-10.8 21.2-14 8.1-3.3 16.6-4.8 25.2-4.5zm0 98.6c18.7 0 24.4-18.4 24.4-33.9 0-15.4-5.8-34.1-24.4-34.1s-24.2 18.4-24.2 34.1c-.1 15.7 5.5 33.8 24.2 33.9M303.5 83.6c0-6.7 1.7-13.2 5.1-19 3.4-5.8 8.2-10.5 14-13.8 12-6.2 25.3-9.1 38.8-8.6 28.9 0 57 6.4 57 40.9v53.6c-.8 10.6.8 21.3 4.7 31.3h-40.3c-1.2-3.7-2-7.6-2.3-11.6-5.4 5.1-11.7 9-18.6 11.6-6.9 2.6-14.3 3.7-21.7 3.4-23.4 0-41.6-11.8-41.6-36.9 0-39.9 43.3-36.6 71.2-42.4 6.9-1.5 10.5-3.9 10.5-11.4S369.1 68.1 361 68.1c-4.6-.2-9.1 1.2-12.7 4-3.6 2.8-6.2 6.7-7.2 11.2l-37.6.3zm51.9 63.4c19.1 0 25.5-10.9 24.4-36-8 3.1-16.2 5.3-24.6 6.6-8.6 2.3-16.5 5.8-16.5 15.4-.1 9.7 7.7 14 16.7 14zM534.1 168.1h-50.4L430.8 0h45.7l32.8 124.9h.6L542.7 0h45.9l-54.5 168.1zM638.9 30.7h-40.1V0h40.1v30.7zm-40 15.1H639V168h-40.1V45.8zM695.1 128c-.1 2.7.5 5.3 1.6 7.7 1.2 2.4 2.9 4.5 5 6 4.4 2.9 9.5 4.4 14.8 4.3 7.7 0 18.9-3.2 18.9-12.8s-12.4-11.4-19.5-12.8c-25.3-6.4-56.8-7.1-56.8-40.1 0-29.4 31.7-37.5 55.7-37.5 24 0 54.9 9.4 56.4 41.2h-36.9c.1-2.3-.2-4.6-1.1-6.7-.9-2.1-2.3-4-4-5.5-3.9-2.2-8.2-3.2-12.6-3-6.6 0-17.2.6-17.2 9.2s26.8 13.7 45.2 17.6c8.3.9 16 4.7 21.7 10.7 5.7 6.1 9 14 9.4 22.3 0 32.8-31.1 43.5-58.7 43.5s-58.5-9.6-59.8-43.7l37.9-.4zM865.7 83.6h-24.6v43.7c0 9.6 5.6 11.8 14.4 11.8l10.3-.4v29.4c-7.3.2-14.6 1.1-21.9 1.1-34.1 0-42.9-9.9-42.9-43.1V83.6h-20.2V52.7H801V15h40.1v37.7h24.6v30.9zM880.1 83.6c0-6.7 1.7-13.2 5.1-19 3.4-5.8 8.2-10.5 14-13.8 12-6.2 25.3-9.1 38.8-8.6 28.9 0 57 6.4 57 40.9v53.6c-.8 10.6.8 21.3 4.7 31.3h-40.3c-1.3-3.7-2-7.6-2.3-11.6-5.4 5.1-11.7 9-18.6 11.6-6.9 2.6-14.3 3.7-21.7 3.4-23.4 0-41.6-11.8-41.6-36.9 0-39.9 43.3-36.6 71.2-42.4 6.9-1.5 10.5-3.9 10.5-11.4s-11.2-12.6-19.3-12.6c-4.6-.2-9.1 1.2-12.7 4-3.6 2.8-6.2 6.7-7.2 11.2l-37.6.3zm51.8 63.4c19.1 0 25.5-10.9 24.4-36-8 3.1-16.2 5.3-24.6 6.6-8.6 2.3-16.5 5.8-16.5 15.4 0 9.7 7.7 14 16.7 14z"/><path d="M693.8 211.4H38.4l-7.7.6c-4.3.2-8.5 1.3-12.4 3.2-3.9 1.9-7.3 4.6-10.1 7.8-2.8 3.3-5 7.1-6.3 11.2-1.3 4.1-1.8 8.4-1.4 12.7v9.9h678v-8.2c-.4-7 .8-13.9 3.5-20.4 2.5-6.4 6.6-12.2 11.8-16.8z" style="fill:#4bb374"/><path d="m730.5 211.4-8.2.6c-6.1.4-12 2.6-16.8 6.3-4.9 3.7-8.6 8.7-10.6 14.5-.4 1.4-.8 2.8-1.1 4.3-.7 3.5-1.1 7-1.1 10.5v9.2h269.2l7.7-.6c4.4-.4 8.6-1.6 12.5-3.6 3.9-2 7.3-4.8 10.2-8.2 2.8-3.4 4.9-7.3 6.2-11.5 1.3-4.2 1.7-8.6 1.3-13v-8.6H730.5z" style="fill:#f9b226"/></svg>