<?xml version="1.0" encoding="UTF-8"?><svg id="Calque_2" xmlns="http://www.w3.org/2000/svg" viewBox="0 0 495.06 149.68"><defs><style>.cls-1{fill:#fff;}</style></defs><g id="Calque_1-2"><g><path class="cls-1" d="M454.9,55.8c-2.43-.3-4.93-.45-7.35-.38-4.55,.15-9.09,.91-13.41,2.35-9.55,3.18-17.43,9.17-22.96,16.82-7.27-10.08-18.41-17.05-31.59-18.79-2.42-.3-4.93-.45-7.35-.38-4.55,.15-9.09,.91-13.41,2.35-19.55,6.52-32.28,24.7-31.67,45.23,.23,9.39,3.26,18.26,8.64,25.68-3.03,2.12-7.8,2.2-8.41,2.2-7.35,0-13.64-3.03-16.67-8.18-3.18-5.3-4.77-14.47-4.77-27.35,0-3.64,.15-10.76,.38-16.67,.3-9.93,2.27-22.35,3.11-27.28v-.3h.3c17.96-2.8,40.31-8.18,61.14-14.7,17.96-5.61,31.59-11.14,34.93-14.02,5.76-5.15,8.18-11.67,6.82-18.34-.23-.98-.76-1.89-1.51-2.58-2.2-1.89-5.15-1.97-7.27-.23-18.87,15.68-59.17,24.7-81.45,28.64l-8.71,1.59,1.44-9.17c.53-3.56,1.21-7.5-1.51-9.85-1.37-1.14-3.18-1.97-5.23-2.27h-.53c-3.18-.61-6.36,.45-8.79,2.73-1.44,1.36-2.65,4.32-2.95,6.14l-2.43,15.3h-.61c-3.48,.53-5.53,.83-5.53,.83-8.49,.83-15,.15-19.7-.3-3.26-.3-5.61-.53-6.67,0-2.27,1.14-2.8,1.74-3.48,3.79-.76,2.27-.38,4.92,1.21,7.88,3.11,5.53,9.4,7.2,12.81,7.65,.08,0,7.96,.68,16.67-1.36h.23c.23,0,.45,.08,.61,.23,.23,.23,.3,.45,.23,.76l-.99,6.36-1.74,11.59-.53,7.12c-.38,5.68-.53,13.49-.53,18.64,0,7.05,.53,13.49,1.67,19.24,1.29,6.67,3.26,12.43,5.99,17.05,6.21,10.46,16.29,15.83,30.15,15.83,7.35,0,20.38-4.09,26.9-7.73,6.97,4.09,14.93,6.29,23.18,6.29h1.29c14.62-.38,27.88-7.58,36.29-19.32,1.66,2.35,3.64,4.55,5.76,6.59,8.71,8.18,19.93,12.73,31.82,12.73h1.29c16.06-.45,30.53-9.02,38.72-22.88,3.56-6.14,5.68-12.8,6.21-19.85,.15-1.67,.15-3.26,.15-4.85-.61-22.96-17.58-41.75-40.31-44.7l.15-.15Zm-108.19,83.87s-.76-.76-1.21-1.06c.99,.76,2.04,1.52,3.11,2.2-.68-.3-1.36-.68-1.89-1.14Zm49.02-19.4c-5.3,6.36-13.11,10.08-21.29,10.3-15.84,.38-29.17-12.12-29.62-28.03-.3-10.99,5.53-20.99,15.3-26.21,4.02-2.12,8.26-3.26,12.73-3.41h.76c2.8,0,5.61,.45,8.33,1.21,11.21,3.41,19.4,13.49,20.38,25.15v.45c.08,.38,.15,.76,.15,1.21,.23,7.05-2.2,13.86-6.74,19.32Zm75.16,0c-5.3,6.36-13.11,10.08-21.29,10.3-15.84,.38-29.17-12.12-29.62-28.03-.3-10.99,5.53-20.99,15.3-26.21,4.02-2.12,8.26-3.26,12.73-3.41h.76c2.8,0,5.61,.45,8.33,1.21,11.21,3.41,19.4,13.49,20.38,25.15v.45c.08,.38,.15,.76,.15,1.21,.23,7.05-2.2,13.86-6.74,19.32Z"/><path class="cls-1" d="M51.6,74.59c2.8,.23,5.83,2.42,6.44,3.49,2.2,3.79,5.83,6.06,9.77,6.06h.15c3.64,0,6.52-1.29,8.26-3.49,1.89-2.35,2.57-5.83,1.82-9.47-.46-2.05-1.67-4.02-3.48-5.61-7.2-6.14-16.67-9.39-26.97-9.39-2.65,0-5.38,.23-8.11,.68-13.94,2.27-26.14,10.23-32.65,21.29C2.2,85.2-.15,93.46,0,102.02c-.15,8.56,2.2,16.82,6.82,23.87,6.51,11.06,18.79,19.02,32.65,21.29,13.18,2.2,25.99-.99,35-8.79,1.89-1.59,3.11-3.56,3.48-5.61,.76-3.64,.08-7.12-1.82-9.47-1.82-2.27-4.7-3.41-8.26-3.49h-.15c-3.94,0-7.58,2.27-9.77,6.06-.61,1.06-3.56,3.26-6.44,3.49-7.58,.68-14.17-.68-19.55-4.02l-.3-.15c-6.44-4.24-10.68-11.36-11.74-19.7-.08-.83-.15-1.67-.15-2.42v-2.12c0-.76,.08-1.59,.15-2.42,.98-8.26,5.3-15.38,11.74-19.62l.23-.23c5.38-3.33,11.97-4.77,19.55-4.02l.15-.08Z"/><path class="cls-1" d="M180.1,129.52c-4.85-2.95-5.61-4.85-5.61-13.49v-51.29c0-4.17-3.11-8.56-8.94-8.56s-7.88,4.39-7.88,8.56v1.82l-.46-.38c-6.59-5.38-14.55-8.79-23.03-9.85-1.97-.23-4.02-.38-5.98-.38h-1.21c-4.55,.15-9.02,.91-13.26,2.35-19.4,6.44-32.05,24.55-31.52,45,.38,12.27,5.45,23.71,14.39,32.2,8.56,8.11,19.85,12.65,31.67,12.65h1.29c10.83-.3,21.21-4.39,29.25-11.52l.3-.3,.15,.38c2.5,6.82,7.73,10.76,14.7,11.14,3.64,0,6.44-.83,8.41-2.73,1.74-1.67,2.65-4.09,2.65-6.89,0-3.26-1.52-5.99-4.85-8.64l-.08-.08Zm-30.15-9.32c-5.23,6.21-12.88,9.93-20.99,10.15h-.76c-15.3,0-28.03-12.27-28.41-27.65-.3-10.83,5.45-20.68,15.08-25.84,3.94-2.12,8.18-3.26,12.58-3.33h.76c2.73,0,5.53,.38,8.18,1.21,11.06,3.33,19.09,13.33,20.08,24.78v.45c.08,.38,.15,.76,.15,1.21,.23,6.89-2.2,13.64-6.67,19.02Z"/><path class="cls-1" d="M257.91,60.35c-4.77-3.18-10.53-4.77-16.97-4.77,0,0-10-1.14-24.62,7.8,0,0-.61,.3-.91,.53-.76,.45-1.51,1.06-2.27,1.59-1.21,.91-2.27,1.67-2.27,1.67l-.3,.3-.15-.38c-1.97-5.3-5.53-8.86-10.31-10.38-1.36-.45-2.88-.76-4.39-.83-3.64,0-6.44,.83-8.41,2.73-1.74,1.67-2.65,4.09-2.65,6.89,0,3.26,1.52,5.99,4.85,8.64,4.85,2.95,5.61,4.85,5.61,13.49v51.07c0,2.73,.98,5.08,2.8,6.97,1.59,1.67,3.41,2.42,5.68,2.5,5.38,.08,8.94-4.24,8.94-8.79v-42.43c0-22.2,23.64-22.58,23.64-22.58,10.91,0,18.64,5.76,18.64,18.41v45.38c0,2.8,.99,5.23,2.88,7.2,1.67,1.74,3.48,2.5,5.83,2.58h.23c4.7,.08,8.03-3.26,8.71-7.2,.15-.61,.23-1.21,.23-1.82v-47.73c0-6.44-1.29-12.35-3.79-17.73-2.5-5.46-6.21-9.77-10.99-12.96v-.15Z"/></g></g></svg>