<?xml version="1.0" standalone="no"?>
<!DOCTYPE svg PUBLIC "-//W3C//DTD SVG 20010904//EN"
 "http://www.w3.org/TR/2001/REC-SVG-20010904/DTD/svg10.dtd">
<svg version="1.0" xmlns="http://www.w3.org/2000/svg"
 width="305.000000pt" height="128.000000pt" viewBox="0 0 305.000000 128.000000"
 preserveAspectRatio="xMidYMid meet">

<g transform="translate(0.000000,128.000000) scale(0.100000,-0.100000)"
fill="#000000" stroke="none">
<path d="M207 1265 c-46 -16 -64 -30 -83 -66 -29 -57 -11 -130 37 -155 60 -31
147 -7 184 50 23 34 22 112 -2 138 -36 40 -84 52 -136 33z"/>
<path d="M730 1266 c-64 -18 -83 -30 -129 -82 -40 -46 -61 -96 -76 -186 l-6
-38 -189 0 c-260 0 -232 35 -287 -355 -33 -240 -40 -311 -30 -317 17 -11 131
-10 161 2 14 5 32 19 40 32 8 13 27 116 44 232 35 252 32 246 153 246 l79 0 0
-31 c0 -65 -62 -464 -77 -493 -8 -17 -39 -54 -69 -82 -61 -57 -67 -80 -34
-151 22 -49 19 -49 129 6 103 53 158 114 195 219 11 31 86 491 86 527 0 3 23
5 50 5 74 0 105 20 125 80 25 74 19 80 -70 80 l-75 0 1 33 c0 17 5 48 12 67
15 42 60 62 125 53 52 -7 78 9 110 65 l23 41 -26 17 c-62 41 -179 54 -265 30z"/>
<path d="M1760 1273 c-61 -12 -110 -75 -110 -144 0 -48 56 -99 109 -99 104 0
175 94 138 183 -21 49 -73 72 -137 60z"/>
<path d="M1139 964 c-160 -49 -263 -211 -264 -414 0 -87 3 -100 30 -150 58
-105 153 -148 305 -137 81 5 196 45 225 77 16 18 16 21 -5 55 -36 59 -66 67
-151 39 -67 -22 -127 -14 -157 22 -36 41 -26 67 28 77 229 41 341 103 369 204
15 53 13 82 -8 129 -35 76 -117 114 -245 113 -44 0 -102 -7 -127 -15z m146
-138 c12 -8 18 -25 17 -47 -1 -59 -88 -119 -171 -119 -22 0 -23 3 -18 37 4 21
19 56 35 78 42 60 96 81 137 51z"/>
<path d="M2272 963 c-18 -9 -50 -36 -71 -59 -21 -24 -41 -44 -45 -44 -3 0 -6
23 -6 50 l0 50 -74 0 c-118 0 -111 12 -156 -306 -21 -148 -40 -291 -42 -319
l-3 -50 74 -3 c87 -3 125 9 140 46 5 15 17 79 26 142 27 189 88 290 175 290
21 0 45 7 54 15 18 19 69 182 61 195 -10 16 -97 11 -133 -7z"/>
<path d="M2633 966 c-169 -53 -287 -259 -270 -469 12 -144 82 -227 197 -235
75 -5 123 11 177 61 l44 40 33 -36 c38 -42 75 -54 115 -37 40 16 50 46 62 174
5 61 19 178 30 259 11 82 18 159 15 171 -6 25 -69 57 -147 75 -61 14 -205 12
-256 -3z m175 -150 c10 -11 -29 -269 -48 -313 -20 -45 -69 -83 -107 -83 -38 0
-63 45 -63 112 0 74 24 183 50 226 29 48 77 74 123 68 21 -2 41 -7 45 -10z"/>
<path d="M1684 953 c-48 -9 -53 -28 -99 -349 -23 -170 -41 -312 -38 -316 2 -5
44 -8 92 -8 130 0 121 -18 171 348 23 166 40 309 36 317 -4 11 -21 15 -73 14
-37 -1 -78 -4 -89 -6z"/>
</g>
</svg>
