<svg xmlns="http://www.w3.org/2000/svg" fill="none" viewBox="0 0 131 28"><path fill="currentColor" d="M9.198 10.882H6.305v10.48h-4.68v-10.48H0V7.198h1.625V2.625h4.68v4.573h2.893zM27.463 14.28q0 3.145-2.177 5.272-2.34 2.287-6.338 2.287t-6.338-2.287q-2.177-2.127-2.177-5.271t2.177-5.272q2.34-2.286 6.338-2.286t6.338 2.286q2.176 2.129 2.177 5.272m-8.515-3.683q-1.593.001-2.633 1.016-1.072 1.048-1.072 2.668t1.072 2.667q1.04 1.017 2.665 1.017 1.56 0 2.6-1.017 1.073-1.047 1.074-2.667 0-1.62-1.073-2.668-1.042-1.016-2.633-1.016M35.003 19.744v5.846h-4.68V7.2h4.68v1.682q1.69-2.16 4.518-2.16 3.087.001 5.135 2 2.177 2.13 2.178 5.527 0 3.43-2.308 5.684-1.95 1.905-4.907 1.906-3.089 0-4.616-2.095m3.38-9.083q-1.526 0-2.6 1.049-1.105 1.08-1.104 2.604 0 1.43 1.04 2.509 1.105 1.08 2.665 1.08 1.43 0 2.503-.985 1.138-1.047 1.138-2.699-.001-1.557-1.105-2.572a3.63 3.63 0 0 0-2.536-.986M58.47 10.885h-3.705v10.48h-4.68v-10.48h-1.69V7.2h1.69s-.247-3.075 1.714-4.636c2.19-1.743 5.309-1.229 6.176-.911v3.922c-.585-.36-2.103-.608-2.878.208-.51.538-.333 1.417-.333 1.417h3.705zM60.293 2.563h4.68v18.8h-4.68zM69.41 4.795a2.54 2.54 0 0 1-.797-1.89q0-1.11.797-1.889.795-.778 1.933-.778t1.934.778q.796.779.796 1.89 0 1.112-.796 1.889-.796.779-1.934.778-1.137 0-1.933-.778m-.407 2.404h4.68v14.164h-4.68zM88.601 8.85V7.2h4.68v12.435q0 1.27-.08 2.111-.083.842-.504 1.97a5.8 5.8 0 0 1-1.203 1.953q-2.015 2.095-6.11 2.095-3.9 0-6.046-1.81-1.755-1.46-2.177-3.748h5.103q.227.858 1.04 1.398.747.477 2.015.477 1.462 0 2.34-.762.942-.89.942-2.954v-.75q-1.332 2.129-4.322 2.128-3.25 0-5.298-2-2.112-2.128-2.112-5.335 0-3.494 2.145-5.653 2.014-2.032 5.266-2.032 2.858 0 4.321 2.127m-3.25 1.843q-1.56 0-2.567.92-1.105 1.016-1.105 2.636 0 1.493 1.008 2.54.975 1.017 2.633 1.017 1.527 0 2.534-.921 1.138-1.048 1.138-2.7-.001-1.586-1.105-2.604-1.009-.888-2.535-.888M96.987 21.363v-18.8h4.68v6.32q.813-.985 1.755-1.461 1.17-.603 2.828-.603 2.665 0 4.095 1.429 1.43 1.398 1.43 4.128v8.988h-4.68V14.09q0-2.096-.78-2.826-.651-.636-1.821-.636-1.138 0-1.852.699-.976.92-.975 2.953v7.082zM123.735 10.882h-2.893v10.48h-4.68v-10.48h-1.626V7.198h1.626V2.625h4.68v4.573h2.893z"/><path fill="#00ffbf" d="M125.395 21.028a2.76 2.76 0 0 1-.861-2.048q0-1.206.861-2.048.862-.842 2.096-.842 1.236 0 2.097.842.861.841.861 2.048t-.861 2.048-2.097.842q-1.234 0-2.096-.842"/></svg>